<svg width="96" height="96" viewBox="0 0 96 96" xmlns="http://www.w3.org/2000/svg">
  <!-- Isometric Park -->
  <defs>
    <linearGradient id="parkGrass" x1="0%" y1="0%" x2="100%" y2="0%">
      <stop offset="0%" stop-color="#7CFC00" />
      <stop offset="100%" stop-color="#32CD32" />
    </linearGradient>
    <linearGradient id="parkPath" x1="0%" y1="0%" x2="100%" y2="0%">
      <stop offset="0%" stop-color="#D2B48C" />
      <stop offset="100%" stop-color="#DEB887" />
    </linearGradient>
    <linearGradient id="treeTrunk" x1="0%" y1="0%" x2="100%" y2="0%">
      <stop offset="0%" stop-color="#8B4513" />
      <stop offset="100%" stop-color="#A0522D" />
    </linearGradient>
    <linearGradient id="treeTop" x1="0%" y1="0%" x2="100%" y2="0%">
      <stop offset="0%" stop-color="#228B22" />
      <stop offset="100%" stop-color="#32CD32" />
    </linearGradient>
  </defs>
  
  <!-- Park Base (Isometric Diamond) -->
  <polygon points="48,24 72,36 48,48 24,36" fill="url(#parkGrass)" />
  
  <!-- Park Path -->
  <polygon points="48,24 54,27 42,33 36,30" fill="url(#parkPath)" />
  <polygon points="42,33 48,36 48,48 42,45" fill="url(#parkPath)" />
  
  <!-- Small Tree 1 -->
  <polygon points="36,30 38,31 38,35 36,36 34,35 34,31" fill="url(#treeTrunk)" />
  <polygon points="36,26 42,29 36,32 30,29" fill="url(#treeTop)" />
  
  <!-- Small Tree 2 -->
  <polygon points="60,36 62,37 62,41 60,42 58,41 58,37" fill="url(#treeTrunk)" />
  <polygon points="60,32 66,35 60,38 54,35" fill="url(#treeTop)" />
  
  <!-- Bench -->
  <polygon points="48,36 52,38 52,40 48,42 44,40 44,38" fill="#8B4513" />
</svg>